<svg xmlns="http://www.w3.org/2000/svg" xmlns:xlink="http://www.w3.org/1999/xlink" width="1080" zoomAndPan="magnify" viewBox="0 0 810 809.999993" height="1080" preserveAspectRatio="xMidYMid meet" version="1.0"><defs><clipPath id="1e36996090"><path d="M 729 160.3125 L 810 160.3125 L 810 425 L 729 425 Z M 729 160.3125 " clip-rule="nonzero"/></clipPath><clipPath id="33cb0ce335"><path d="M 0 667.738281 L 186.503906 667.738281 L 186.503906 810 L 0 810 Z M 0 667.738281 " clip-rule="nonzero"/></clipPath><clipPath id="d25d00f1ac"><path d="M 82 96 L 234 96 L 234 173 L 82 173 Z M 82 96 " clip-rule="nonzero"/></clipPath><clipPath id="3ddabc3b14"><path d="M 83.367188 92.8125 L 234.046875 97.425781 L 231.679688 174.640625 L 81 170.027344 Z M 83.367188 92.8125 " clip-rule="nonzero"/></clipPath><clipPath id="867f28492b"><path d="M 83.367188 92.8125 L 234.046875 97.425781 L 231.679688 174.640625 L 81 170.027344 Z M 83.367188 92.8125 " clip-rule="nonzero"/></clipPath><clipPath id="a604f5608b"><path d="M 0 635 L 132 635 L 132 810 L 0 810 Z M 0 635 " clip-rule="nonzero"/></clipPath><clipPath id="57042a9a65"><path d="M 69.835938 628.378906 L 152.390625 766.019531 L -10.332031 863.617188 L -92.890625 725.980469 Z M 69.835938 628.378906 " clip-rule="nonzero"/></clipPath><clipPath id="0da1cbe7d7"><path d="M 69.835938 628.378906 L 152.390625 766.019531 L -10.332031 863.617188 L -92.890625 725.980469 Z M 69.835938 628.378906 " clip-rule="nonzero"/></clipPath></defs><rect x="-81" width="972" fill="#ffffff" y="-80.999999" height="971.999992" fill-opacity="1"/><rect x="-81" width="972" fill="#ffffff" y="-80.999999" height="971.999992" fill-opacity="1"/><rect x="-81" width="972" fill="#ffdc5d" y="-80.999999" height="971.999992" fill-opacity="1"/><g clip-path="url(#1e36996090)"><path fill="#ffb001" d="M 1029.757812 416.710938 C 1027.0625 417.355469 1024.816406 418.703125 1022.828125 420.566406 C 1021.800781 421.53125 1020.582031 422.429688 1019.300781 423.070312 C 1016.539062 424.421875 1013.589844 425.0625 1010.507812 424.421875 C 1006.015625 423.457031 1001.527344 422.492188 997.226562 420.886719 C 995.367188 420.179688 993.375 419.667969 991.453125 419.152344 C 988.628906 418.320312 986.0625 416.96875 983.6875 415.300781 C 980.734375 413.246094 977.785156 411.1875 974.832031 409.261719 C 972.136719 407.527344 969.25 405.921875 966.492188 404.253906 C 965.65625 403.738281 964.824219 403.097656 963.988281 402.582031 C 959.945312 400.011719 955.902344 397.378906 951.796875 394.875 C 949.421875 393.398438 946.855469 392.175781 944.417969 390.828125 C 943.136719 390.121094 941.980469 389.289062 940.695312 388.582031 C 939.027344 387.617188 937.425781 386.652344 935.753906 385.753906 C 931.070312 383.3125 926.386719 380.9375 921.703125 378.625 C 920.035156 377.789062 918.238281 377.082031 916.441406 376.503906 C 913.234375 375.476562 910.089844 374.320312 906.816406 373.550781 C 905.085938 373.164062 903.417969 372.394531 901.683594 371.882812 C 900.078125 371.367188 898.476562 371.109375 896.808594 370.855469 C 892.765625 370.277344 888.785156 370.277344 884.742188 370.402344 C 882.820312 370.46875 880.957031 370.660156 879.097656 370.917969 C 876.339844 371.304688 873.578125 371.6875 870.753906 371.6875 C 868.253906 371.753906 865.878906 372.203125 863.441406 372.714844 C 860.167969 373.421875 856.894531 374.195312 853.6875 375.09375 C 846.695312 377.082031 839.761719 379.203125 833.089844 382.09375 C 832.707031 382.285156 832.257812 382.480469 831.871094 382.609375 C 826.996094 384.277344 822.4375 386.652344 817.820312 388.964844 C 813.132812 391.34375 808.320312 393.398438 803.316406 395.003906 C 800.558594 395.902344 797.863281 396.929688 795.167969 398.085938 C 793.4375 398.855469 791.574219 399.371094 789.777344 399.886719 C 787.660156 400.527344 785.414062 400.976562 783.296875 401.617188 C 780.921875 402.324219 778.613281 402.132812 776.429688 401.167969 C 774.699219 400.398438 772.902344 399.757812 771.042969 399.308594 C 770.273438 399.113281 769.628906 398.664062 769.050781 398.085938 C 768.601562 397.574219 768.21875 397.058594 767.703125 396.609375 C 766.933594 396.03125 766.808594 395.132812 766.421875 394.359375 C 766.035156 393.527344 765.652344 392.753906 765.78125 391.855469 C 765.84375 390.957031 765.652344 390.058594 765.394531 389.222656 C 763.984375 384.46875 763.40625 379.589844 763.214844 374.644531 C 763.214844 374 763.214844 373.292969 763.019531 372.652344 C 762.121094 369.570312 762.445312 366.421875 762.828125 363.339844 C 763.148438 360.769531 763.535156 358.265625 764.304688 355.761719 C 764.433594 355.308594 764.5625 354.859375 764.5625 354.476562 C 764.625 352.226562 765.332031 350.042969 766.035156 347.925781 C 766.550781 346.191406 767.128906 344.519531 767.449219 342.785156 C 768.152344 339.253906 769.695312 335.976562 770.65625 332.574219 C 770.785156 332.125 771.105469 331.738281 771.105469 331.351562 C 771.363281 329.234375 772.195312 327.242188 772.902344 325.25 C 773.671875 323.066406 774.507812 320.820312 775.40625 318.699219 C 776.109375 317.09375 776.496094 315.296875 777.585938 313.820312 C 777.84375 312.726562 778.292969 311.699219 778.550781 310.605469 C 779.0625 308.746094 780.152344 307.203125 780.730469 305.339844 C 780.921875 304.699219 781.371094 304.183594 781.757812 303.605469 C 782.589844 302.386719 783.167969 301.039062 783.488281 299.625 C 784.003906 297.570312 784.582031 295.511719 785.09375 293.457031 C 785.480469 291.851562 785.929688 290.246094 786.121094 288.578125 C 786.3125 287.035156 786.699219 285.492188 787.019531 283.953125 C 787.402344 282.347656 787.980469 280.742188 787.851562 279.007812 C 787.851562 278.558594 788.046875 278.171875 788.175781 277.722656 C 788.238281 277.402344 788.429688 277.078125 788.367188 276.757812 C 788.046875 274.960938 788.367188 273.160156 788.175781 271.429688 C 787.980469 269.628906 787.46875 267.894531 787.082031 266.160156 C 787.019531 265.96875 787.019531 265.710938 786.890625 265.519531 C 785.351562 262.628906 784.902344 259.351562 783.746094 256.335938 C 782.71875 253.574219 781.5 251.003906 779.703125 248.625 C 778.421875 246.890625 776.816406 245.542969 774.828125 244.644531 C 773.289062 243.9375 771.8125 243.167969 770.398438 242.269531 C 769.4375 241.691406 768.476562 241.113281 767.382812 240.789062 C 764.046875 239.632812 761.03125 237.964844 758.082031 236.167969 C 757.054688 235.523438 755.960938 234.882812 754.742188 234.5625 C 753.394531 234.238281 752.242188 233.53125 751.277344 232.632812 C 749.996094 231.347656 748.457031 230.449219 746.980469 229.421875 C 743.644531 227.175781 740.304688 224.863281 736.96875 222.613281 C 735.429688 221.585938 734.273438 220.300781 733.632812 218.503906 C 733.375 217.796875 733.054688 217.027344 732.605469 216.382812 C 731.773438 215.035156 731.066406 213.6875 731.195312 212.015625 C 731.195312 211.695312 731.128906 211.308594 731.003906 211.054688 C 730.167969 209.191406 730.230469 207.136719 729.589844 205.207031 C 729.332031 204.375 729.398438 203.472656 729.78125 202.574219 C 729.976562 202.0625 730.230469 201.484375 730.167969 200.96875 C 730.039062 200.003906 730.359375 199.234375 730.554688 198.335938 C 730.9375 196.921875 731.257812 195.574219 731.324219 194.097656 C 731.453125 191.011719 732.347656 188.058594 734.144531 185.617188 C 735.941406 183.113281 736.96875 180.289062 738.058594 177.460938 C 738.125 175.726562 739.214844 174.570312 740.433594 173.609375 C 741.332031 172.902344 742.039062 172.066406 742.488281 171.039062 C 742.617188 170.71875 742.808594 170.460938 743.066406 170.203125 C 744.15625 169.238281 745.246094 168.277344 746.335938 167.378906 C 746.785156 167.054688 747.300781 166.800781 747.8125 166.542969 C 748.648438 166.222656 749.480469 165.835938 750.316406 165.644531 C 752.945312 164.9375 755.320312 163.78125 757.824219 162.6875 C 758.53125 162.367188 759.234375 162.046875 759.875 161.597656 C 761.03125 160.828125 762.316406 160.441406 763.664062 160.375 C 765.585938 160.3125 767.449219 160.3125 769.375 160.375 C 770.015625 160.375 770.65625 160.632812 771.363281 160.761719 C 774.890625 161.660156 778.035156 163.265625 780.988281 165.320312 C 782.914062 166.671875 784.964844 167.828125 786.953125 169.046875 C 788.6875 170.074219 790.292969 171.296875 791.703125 172.773438 C 792.730469 173.800781 793.820312 174.765625 794.910156 175.726562 C 797.605469 178.105469 800.042969 180.671875 802.417969 183.433594 C 804.535156 185.875 806.78125 188.25 809.027344 190.5625 C 810.441406 192.042969 811.53125 193.710938 812.492188 195.507812 C 814.289062 198.976562 815.894531 202.511719 817.175781 206.234375 C 817.820312 208.164062 818.71875 209.960938 819.550781 211.757812 C 819.871094 212.464844 820.386719 213.109375 820.835938 213.75 C 821.988281 215.292969 823.082031 216.832031 824.300781 218.3125 C 825.902344 220.367188 827.121094 222.613281 828.40625 224.863281 C 830.714844 228.78125 833.796875 231.992188 837.390625 234.6875 C 837.773438 234.945312 838.09375 235.203125 838.480469 235.394531 C 841.046875 236.679688 843.675781 238.027344 846.308594 239.25 C 849.582031 240.726562 852.917969 241.945312 856.382812 242.972656 C 858.5 243.617188 860.617188 244.386719 862.671875 245.285156 C 865.558594 246.570312 868.511719 247.535156 871.589844 248.242188 C 874.542969 248.949219 877.429688 249.65625 880.445312 250.039062 C 882.5625 250.296875 884.617188 251.003906 886.667969 251.453125 C 890.710938 252.417969 894.753906 253.1875 898.859375 253.828125 C 901.171875 254.214844 903.480469 254.664062 905.855469 254.601562 C 908.675781 255.242188 911.628906 255.050781 914.515625 255.5 C 915.160156 255.628906 915.863281 255.691406 916.507812 255.5625 C 919.585938 255.113281 922.730469 255.433594 925.875 255.179688 C 927.671875 255.050781 929.402344 255.179688 931.199219 255.433594 C 932.867188 255.691406 934.535156 255.691406 936.203125 255.691406 C 939.347656 255.691406 942.429688 255.691406 945.574219 256.207031 C 946.664062 256.398438 947.820312 256.398438 948.910156 256.460938 C 951.15625 256.589844 953.402344 256.65625 955.582031 256.914062 C 957.25 257.105469 958.917969 257.105469 960.589844 257.039062 C 963.089844 256.914062 965.527344 257.488281 967.839844 258.066406 C 971.175781 258.902344 974.511719 259.929688 977.71875 261.152344 C 978.554688 261.472656 979.386719 261.792969 980.285156 261.730469 C 981.441406 261.664062 982.46875 262.050781 983.496094 262.5 C 984.199219 262.820312 984.972656 263.015625 985.675781 263.398438 C 986.253906 263.65625 986.960938 263.914062 987.410156 264.425781 C 988.308594 265.519531 989.589844 265.96875 990.683594 266.675781 C 995.109375 269.4375 998.894531 272.839844 1001.78125 277.207031 C 1004.15625 280.871094 1006.53125 284.53125 1009.035156 288.128906 C 1010.125 289.734375 1010.957031 291.402344 1011.535156 293.203125 C 1012.433594 295.835938 1013.203125 298.53125 1014.167969 301.164062 C 1015.257812 304.121094 1016.539062 306.945312 1017.761719 309.835938 C 1018.59375 311.890625 1019.492188 313.945312 1020.390625 316.003906 C 1021.289062 318.1875 1022.378906 320.242188 1023.917969 322.039062 C 1025.140625 323.453125 1026.359375 324.929688 1027.578125 326.40625 C 1028.539062 327.628906 1029.4375 328.914062 1030.335938 330.195312 C 1032.902344 333.730469 1035.277344 337.390625 1037.332031 341.246094 C 1038.933594 344.199219 1040.667969 347.089844 1042.464844 349.914062 C 1044.773438 353.511719 1046.632812 357.300781 1048.496094 361.15625 C 1050.355469 365.007812 1051.445312 369.121094 1051.769531 373.421875 C 1051.832031 374.195312 1051.894531 374.964844 1052.023438 375.734375 C 1052.667969 379.910156 1052.28125 384.019531 1051.511719 388.066406 C 1051.253906 389.609375 1050.804688 391.148438 1050.484375 392.628906 C 1049.972656 395.195312 1048.945312 397.507812 1047.789062 399.820312 C 1046.570312 402.261719 1044.839844 404.316406 1042.847656 406.113281 C 1042.078125 406.757812 1041.308594 407.398438 1040.539062 408.042969 C 1039.382812 408.941406 1038.421875 410.03125 1037.394531 411.0625 C 1035.726562 412.859375 1033.867188 414.527344 1032.132812 416.261719 C 1031.300781 417.417969 1030.527344 417.355469 1029.757812 416.710938 Z M 981.3125 409.839844 C 981.183594 409.710938 981.058594 409.648438 980.863281 409.519531 C 980.800781 409.519531 980.671875 409.648438 980.671875 409.710938 C 980.734375 409.90625 980.800781 410.03125 980.929688 410.226562 C 981.058594 410.097656 981.183594 409.96875 981.3125 409.839844 Z M 986.640625 415.8125 C 986.703125 415.8125 986.769531 415.878906 986.894531 415.878906 C 986.894531 415.878906 986.960938 415.75 986.960938 415.683594 C 986.894531 415.683594 986.832031 415.621094 986.769531 415.621094 C 986.640625 415.621094 986.640625 415.75 986.640625 415.8125 Z M 987.664062 414.402344 L 987.921875 414.527344 L 987.921875 414.335938 Z M 987.664062 414.402344 " fill-opacity="1" fill-rule="nonzero"/></g><g clip-path="url(#33cb0ce335)"><path fill="#ffb001" d="M 170.480469 844.964844 C 168.621094 845.410156 167.074219 846.339844 165.699219 847.628906 C 164.992188 848.296875 164.152344 848.917969 163.265625 849.359375 C 161.363281 850.292969 159.328125 850.738281 157.203125 850.292969 C 154.101562 849.625 151.003906 848.960938 148.039062 847.851562 C 146.753906 847.363281 145.382812 847.007812 144.054688 846.652344 C 142.105469 846.074219 140.335938 845.144531 138.699219 843.988281 C 136.660156 842.566406 134.625 841.148438 132.589844 839.816406 C 130.730469 838.617188 128.738281 837.507812 126.835938 836.351562 C 126.257812 835.996094 125.683594 835.554688 125.109375 835.199219 C 122.320312 833.421875 119.53125 831.601562 116.699219 829.871094 C 115.058594 828.847656 113.289062 828.007812 111.605469 827.074219 C 110.722656 826.585938 109.925781 826.007812 109.039062 825.519531 C 107.890625 824.855469 106.78125 824.1875 105.632812 823.566406 C 102.398438 821.878906 99.167969 820.238281 95.9375 818.636719 C 94.785156 818.0625 93.546875 817.574219 92.308594 817.171875 C 90.09375 816.464844 87.925781 815.664062 85.667969 815.132812 C 84.472656 814.863281 83.320312 814.332031 82.125 813.976562 C 81.019531 813.621094 79.914062 813.445312 78.761719 813.265625 C 75.972656 812.867188 73.226562 812.867188 70.441406 812.957031 C 69.113281 813 67.828125 813.132812 66.542969 813.3125 C 64.640625 813.578125 62.738281 813.84375 60.789062 813.84375 C 59.0625 813.886719 57.425781 814.199219 55.742188 814.554688 C 53.484375 815.042969 51.226562 815.574219 49.015625 816.195312 C 44.191406 817.574219 39.410156 819.039062 34.804688 821.035156 C 34.539062 821.167969 34.230469 821.300781 33.964844 821.390625 C 30.601562 822.546875 27.457031 824.1875 24.269531 825.785156 C 21.039062 827.429688 17.71875 828.847656 14.265625 829.960938 C 12.363281 830.582031 10.503906 831.292969 8.644531 832.089844 C 7.449219 832.625 6.164062 832.976562 4.925781 833.332031 C 3.464844 833.777344 1.914062 834.089844 0.453125 834.53125 C -1.183594 835.019531 -2.777344 834.886719 -4.28125 834.222656 C -5.476562 833.6875 -6.714844 833.246094 -8 832.933594 C -8.53125 832.800781 -8.972656 832.488281 -9.371094 832.089844 C -9.683594 831.734375 -9.949219 831.378906 -10.300781 831.070312 C -10.832031 830.667969 -10.921875 830.046875 -11.1875 829.515625 C -11.453125 828.9375 -11.71875 828.40625 -11.628906 827.785156 C -11.585938 827.164062 -11.71875 826.539062 -11.894531 825.964844 C -12.871094 822.679688 -13.269531 819.304688 -13.402344 815.886719 C -13.402344 815.441406 -13.402344 814.953125 -13.535156 814.507812 C -14.152344 812.378906 -13.933594 810.203125 -13.667969 808.070312 C -13.445312 806.296875 -13.179688 804.566406 -12.648438 802.832031 C -12.558594 802.523438 -12.472656 802.210938 -12.472656 801.945312 C -12.425781 800.390625 -11.941406 798.882812 -11.453125 797.417969 C -11.097656 796.21875 -10.699219 795.0625 -10.480469 793.867188 C -9.992188 791.421875 -8.929688 789.160156 -8.265625 786.804688 C -8.175781 786.496094 -7.957031 786.230469 -7.957031 785.964844 C -7.777344 784.496094 -7.203125 783.121094 -6.714844 781.746094 C -6.183594 780.234375 -5.609375 778.683594 -4.988281 777.21875 C -4.503906 776.105469 -4.238281 774.863281 -3.484375 773.84375 C -3.308594 773.089844 -3 772.378906 -2.820312 771.625 C -2.46875 770.335938 -1.714844 769.269531 -1.316406 767.984375 C -1.183594 767.539062 -0.875 767.183594 -0.609375 766.785156 C -0.03125 765.941406 0.367188 765.007812 0.585938 764.03125 C 0.941406 762.609375 1.339844 761.191406 1.695312 759.769531 C 1.960938 758.660156 2.269531 757.550781 2.402344 756.394531 C 2.535156 755.328125 2.800781 754.265625 3.023438 753.199219 C 3.289062 752.089844 3.6875 750.980469 3.597656 749.78125 C 3.597656 749.46875 3.730469 749.203125 3.820312 748.890625 C 3.863281 748.671875 3.996094 748.449219 3.953125 748.226562 C 3.730469 746.984375 3.953125 745.742188 3.820312 744.542969 C 3.6875 743.296875 3.332031 742.101562 3.066406 740.902344 C 3.023438 740.769531 3.023438 740.589844 2.933594 740.457031 C 1.871094 738.460938 1.5625 736.195312 0.765625 734.109375 C 0.0546875 732.199219 -0.785156 730.421875 -2.023438 728.78125 C -2.910156 727.582031 -4.015625 726.648438 -5.386719 726.027344 C -6.449219 725.539062 -7.46875 725.007812 -8.441406 724.386719 C -9.105469 723.984375 -9.769531 723.585938 -10.523438 723.363281 C -12.824219 722.566406 -14.90625 721.410156 -16.941406 720.167969 C -17.648438 719.722656 -18.402344 719.28125 -19.242188 719.058594 C -20.171875 718.835938 -20.96875 718.347656 -21.632812 717.726562 C -22.519531 716.839844 -23.582031 716.21875 -24.601562 715.507812 C -26.902344 713.953125 -29.203125 712.355469 -31.503906 710.800781 C -32.566406 710.089844 -33.363281 709.203125 -33.808594 707.960938 C -33.984375 707.472656 -34.207031 706.9375 -34.515625 706.496094 C -35.089844 705.5625 -35.578125 704.628906 -35.488281 703.476562 C -35.488281 703.253906 -35.535156 702.988281 -35.621094 702.808594 C -36.199219 701.523438 -36.152344 700.101562 -36.597656 698.769531 C -36.773438 698.191406 -36.730469 697.570312 -36.464844 696.949219 C -36.332031 696.59375 -36.152344 696.195312 -36.199219 695.839844 C -36.285156 695.171875 -36.066406 694.640625 -35.933594 694.019531 C -35.667969 693.042969 -35.445312 692.109375 -35.402344 691.089844 C -35.3125 688.957031 -34.691406 686.914062 -33.453125 685.230469 C -32.214844 683.496094 -31.503906 681.542969 -30.753906 679.589844 C -30.707031 678.390625 -29.957031 677.59375 -29.117188 676.925781 C -28.496094 676.4375 -28.007812 675.859375 -27.699219 675.152344 C -27.609375 674.929688 -27.476562 674.75 -27.300781 674.574219 C -26.546875 673.90625 -25.796875 673.242188 -25.042969 672.621094 C -24.734375 672.398438 -24.378906 672.21875 -24.023438 672.042969 C -23.449219 671.820312 -22.875 671.554688 -22.296875 671.421875 C -20.484375 670.933594 -18.84375 670.132812 -17.117188 669.378906 C -16.632812 669.15625 -16.144531 668.933594 -15.703125 668.625 C -14.90625 668.09375 -14.019531 667.824219 -13.089844 667.78125 C -11.761719 667.738281 -10.480469 667.738281 -9.152344 667.78125 C -8.707031 667.78125 -8.265625 667.957031 -7.777344 668.046875 C -5.34375 668.667969 -3.175781 669.777344 -1.140625 671.199219 C 0.1875 672.132812 1.605469 672.929688 2.976562 673.773438 C 4.171875 674.484375 5.28125 675.328125 6.253906 676.347656 C 6.960938 677.058594 7.714844 677.726562 8.46875 678.390625 C 10.324219 680.035156 12.007812 681.808594 13.644531 683.71875 C 15.105469 685.40625 16.65625 687.050781 18.207031 688.648438 C 19.179688 689.667969 19.933594 690.824219 20.597656 692.066406 C 21.835938 694.464844 22.941406 696.90625 23.828125 699.480469 C 24.269531 700.8125 24.890625 702.054688 25.464844 703.296875 C 25.6875 703.785156 26.039062 704.230469 26.351562 704.675781 C 27.148438 705.738281 27.898438 706.804688 28.742188 707.828125 C 29.847656 709.246094 30.6875 710.800781 31.574219 712.355469 C 33.167969 715.0625 35.292969 717.28125 37.769531 719.148438 C 38.035156 719.324219 38.257812 719.503906 38.523438 719.636719 C 40.292969 720.523438 42.109375 721.457031 43.925781 722.300781 C 46.183594 723.320312 48.484375 724.164062 50.875 724.875 C 52.335938 725.316406 53.796875 725.851562 55.210938 726.472656 C 57.203125 727.359375 59.242188 728.027344 61.363281 728.515625 C 63.402344 729.003906 65.394531 729.492188 67.472656 729.757812 C 68.933594 729.933594 70.351562 730.421875 71.769531 730.734375 C 74.554688 731.402344 77.34375 731.933594 80.179688 732.378906 C 81.773438 732.644531 83.367188 732.953125 85.003906 732.910156 C 86.949219 733.355469 88.988281 733.21875 90.980469 733.53125 C 91.421875 733.621094 91.910156 733.664062 92.351562 733.574219 C 94.476562 733.265625 96.644531 733.488281 98.8125 733.308594 C 100.054688 733.21875 101.25 733.308594 102.488281 733.488281 C 103.640625 733.664062 104.789062 733.664062 105.941406 733.664062 C 108.109375 733.664062 110.234375 733.664062 112.402344 734.019531 C 113.15625 734.152344 113.953125 734.152344 114.707031 734.199219 C 116.253906 734.285156 117.804688 734.332031 119.308594 734.507812 C 120.460938 734.640625 121.613281 734.640625 122.761719 734.597656 C 124.488281 734.507812 126.171875 734.90625 127.765625 735.308594 C 130.066406 735.882812 132.367188 736.59375 134.582031 737.4375 C 135.15625 737.660156 135.730469 737.882812 136.351562 737.835938 C 137.148438 737.792969 137.855469 738.058594 138.566406 738.371094 C 139.050781 738.59375 139.582031 738.726562 140.070312 738.992188 C 140.46875 739.167969 140.957031 739.347656 141.265625 739.703125 C 141.886719 740.457031 142.769531 740.769531 143.523438 741.257812 C 146.578125 743.164062 149.1875 745.519531 151.179688 748.539062 C 152.820312 751.066406 154.457031 753.597656 156.183594 756.085938 C 156.9375 757.195312 157.511719 758.347656 157.910156 759.59375 C 158.53125 761.410156 159.0625 763.277344 159.726562 765.097656 C 160.476562 767.140625 161.363281 769.09375 162.203125 771.089844 C 162.777344 772.511719 163.398438 773.933594 164.019531 775.351562 C 164.636719 776.863281 165.390625 778.28125 166.453125 779.527344 C 167.292969 780.503906 168.136719 781.523438 168.976562 782.542969 C 169.640625 783.386719 170.261719 784.277344 170.878906 785.164062 C 172.652344 787.605469 174.289062 790.136719 175.703125 792.800781 C 176.8125 794.84375 178.007812 796.839844 179.246094 798.792969 C 180.839844 801.28125 182.125 803.898438 183.40625 806.5625 C 184.691406 809.226562 185.445312 812.066406 185.664062 815.042969 C 185.710938 815.574219 185.753906 816.109375 185.84375 816.640625 C 186.285156 819.527344 186.019531 822.367188 185.488281 825.164062 C 185.3125 826.230469 185 827.296875 184.78125 828.316406 C 184.425781 830.09375 183.71875 831.691406 182.921875 833.289062 C 182.078125 834.976562 180.882812 836.398438 179.511719 837.640625 C 178.980469 838.082031 178.449219 838.527344 177.917969 838.972656 C 177.121094 839.59375 176.457031 840.347656 175.75 841.058594 C 174.597656 842.300781 173.316406 843.457031 172.121094 844.65625 C 171.542969 845.453125 171.011719 845.410156 170.480469 844.964844 Z M 137.058594 840.214844 C 136.972656 840.125 136.882812 840.082031 136.75 839.992188 C 136.707031 839.992188 136.617188 840.082031 136.617188 840.125 C 136.660156 840.257812 136.707031 840.347656 136.792969 840.480469 C 136.882812 840.390625 136.972656 840.304688 137.058594 840.214844 Z M 140.734375 844.34375 C 140.777344 844.34375 140.824219 844.386719 140.910156 844.386719 C 140.910156 844.386719 140.957031 844.300781 140.957031 844.253906 C 140.910156 844.253906 140.867188 844.210938 140.824219 844.210938 C 140.734375 844.210938 140.734375 844.300781 140.734375 844.34375 Z M 141.441406 843.367188 L 141.621094 843.457031 L 141.621094 843.324219 Z M 141.441406 843.367188 " fill-opacity="1" fill-rule="nonzero"/></g><g clip-path="url(#d25d00f1ac)"><g clip-path="url(#3ddabc3b14)"><g clip-path="url(#867f28492b)"><path fill="#2d2220" d="M 162.253906 113.203125 C 163.582031 108.625 166.054688 104.65625 169.289062 101.15625 C 171.90625 98.324219 175.050781 96.515625 178.996094 96.1875 C 182.667969 95.886719 185.535156 97.285156 187.621094 100.226562 C 190.476562 104.269531 191.214844 108.929688 191.371094 113.753906 C 191.492188 117.390625 190.476562 120.757812 188.921875 123.945312 C 183.113281 135.867188 177.714844 148.019531 169.398438 158.570312 C 166.667969 162.027344 164.34375 165.785156 161.773438 169.375 C 160.609375 171.011719 159.113281 172.386719 156.941406 172.300781 C 156.011719 172.253906 154.910156 171.863281 154.246094 171.25 C 153.199219 170.210938 152.320312 169.03125 151.625 167.714844 C 148.101562 161.261719 143.5 155.617188 138.96875 149.871094 C 136.738281 147.050781 134.65625 144.019531 133.03125 140.808594 C 129.796875 134.398438 126.691406 127.902344 125.039062 120.804688 C 123.339844 113.539062 125.433594 107.332031 129.792969 101.710938 C 134.015625 96.335938 139.5625 95.265625 145.9375 97.097656 C 151.046875 98.566406 154.828125 101.792969 157.84375 105.96875 C 159.460938 108.210938 160.75 110.714844 162.253906 113.203125 Z M 157.304688 166.902344 C 158.265625 165.492188 159.09375 164.296875 159.917969 163.078125 C 162.007812 160.050781 163.933594 156.910156 166.214844 154.03125 C 174.082031 143.988281 179.234375 132.40625 184.878906 121.125 C 187.113281 116.679688 187.0625 111.933594 185.824219 107.203125 C 185.40625 105.644531 184.769531 104.148438 183.949219 102.777344 C 182.925781 101.035156 181.277344 100.320312 179.1875 100.507812 C 177.152344 100.679688 175.332031 101.398438 173.839844 102.71875 C 169.851562 106.226562 166.867188 110.398438 165.949219 115.78125 C 165.464844 118.625 165.074219 121.472656 164.609375 124.296875 C 164.429688 125.441406 163.96875 126.453125 162.65625 126.484375 C 161.273438 126.515625 160.960938 125.515625 160.746094 124.339844 C 159.699219 118.699219 157.742188 113.390625 154.253906 108.753906 C 150.855469 104.242188 146.660156 101.058594 140.765625 100.519531 C 138.652344 100.328125 136.84375 100.757812 135.3125 102.113281 C 129.921875 106.875 127.660156 112.703125 129.234375 119.871094 C 130.734375 126.660156 133.941406 132.742188 137.0625 138.828125 C 138.519531 141.675781 140.488281 144.289062 142.417969 146.867188 C 146.078125 151.707031 149.941406 156.410156 153.617188 161.234375 C 154.933594 162.910156 155.988281 164.828125 157.304688 166.902344 Z M 98.683594 111.148438 C 102.414062 111.265625 106.117188 111.773438 109.851562 111.832031 C 111.898438 111.878906 113.136719 112.402344 113.390625 113.558594 C 113.675781 114.792969 112.984375 115.667969 110.789062 116.375 C 109.445312 116.800781 107.996094 117.207031 106.636719 117.128906 C 99.839844 116.777344 93.027344 116.316406 86.234375 115.800781 C 83.90625 115.640625 82.734375 114.597656 82.761719 113.144531 C 82.789062 111.632812 84.09375 110.648438 86.5 110.667969 C 90.558594 110.703125 95.191406 110.773438 98.683594 111.148438 Z M 229.625 100.34375 C 229.4375 100.625 229.167969 101.285156 228.703125 101.71875 C 228.242188 102.15625 227.640625 102.386719 227.058594 102.65625 C 222.355469 104.921875 217.636719 107.1875 212.914062 109.433594 C 211.601562 110.058594 210.269531 110.71875 208.875 111.125 C 207.351562 111.566406 205.976562 110.695312 205.605469 109.371094 C 205.234375 108.046875 205.949219 106.992188 207.425781 106.28125 C 209.792969 105.148438 212.113281 103.855469 214.503906 102.742188 C 217.964844 101.136719 221.457031 99.628906 224.96875 98.152344 C 225.75 97.851562 226.566406 97.699219 227.40625 97.722656 C 228.769531 97.785156 229.675781 98.78125 229.625 100.34375 Z M 214.308594 144.859375 C 217.996094 145.855469 221.644531 146.917969 225.3125 147.984375 C 226.113281 148.222656 227.042969 148.359375 227.601562 148.882812 C 228.175781 149.4375 228.738281 150.460938 228.628906 151.160156 C 228.535156 151.785156 227.910156 152.898438 225.703125 152.832031 C 222.042969 152.71875 218.550781 151.191406 214.980469 150.417969 C 212.804688 149.9375 210.589844 149.546875 208.394531 149.136719 C 207.859375 149.03125 207.316406 149.070312 206.78125 148.980469 C 205.496094 148.761719 204.609375 147.765625 204.546875 146.339844 C 204.492188 145.097656 205.359375 144.40625 206.765625 144.160156 C 207.671875 144.011719 208.511719 144.109375 209.535156 144.140625 C 210.25 144.179688 212.738281 144.433594 214.308594 144.859375 Z M 107.589844 128.808594 C 108.195312 128.898438 108.769531 128.953125 109.359375 129.058594 C 110.503906 129.257812 111.289062 129.910156 111.289062 131.117188 C 111.289062 132.320312 110.460938 132.90625 109.324219 133.121094 C 104.988281 133.90625 100.65625 134.691406 96.335938 135.53125 C 93.699219 136.023438 93.355469 136.140625 90.714844 136.671875 C 90.246094 136.765625 88.308594 137.316406 86.980469 137.257812 C 86.207031 137.214844 85.351562 136.46875 85.171875 135.871094 C 84.992188 135.273438 85.316406 134.113281 85.832031 133.714844 C 86.730469 133.042969 87.769531 132.570312 88.871094 132.351562 C 94.53125 131.175781 100.203125 130.09375 105.875 128.988281 C 106.417969 128.878906 106.996094 128.828125 107.589844 128.808594 Z M 92.300781 159.410156 C 92.324219 158.65625 93.628906 157.113281 93.628906 157.113281 C 94.410156 156.238281 95.332031 155.472656 96.320312 154.855469 C 100.253906 152.480469 104.207031 150.117188 108.242188 147.90625 C 109.59375 147.171875 111.167969 146.808594 112.671875 146.421875 C 113.792969 146.132812 114.882812 146.382812 115.402344 147.566406 C 115.921875 148.75 115.390625 149.6875 114.488281 150.433594 C 114.210938 150.660156 113.917969 150.867188 113.589844 151.015625 C 109.046875 153.359375 104.5 155.703125 99.941406 158.023438 C 97.660156 159.160156 93.097656 162.09375 92.300781 159.410156 Z M 214.101562 127.019531 C 213.582031 126.949219 213.082031 126.859375 212.582031 126.738281 C 211.335938 126.359375 210.550781 125.542969 210.578125 124.175781 C 210.597656 122.867188 211.398438 122.007812 212.589844 121.792969 C 218.332031 120.800781 224.070312 119.878906 229.8125 118.941406 C 229.902344 118.925781 230.007812 118.929688 230.097656 118.933594 C 232.003906 118.902344 233.046875 119.507812 233.167969 120.734375 C 233.292969 121.996094 232.464844 122.691406 230.5625 123.152344 C 225.910156 124.289062 221.277344 125.496094 216.609375 126.644531 C 215.777344 126.835938 214.894531 126.898438 214.101562 127.019531 Z M 214.101562 127.019531 " fill-opacity="1" fill-rule="nonzero"/></g></g></g><path fill="#e8f9cf" d="M 688.550781 93.164062 C 687.671875 93.121094 688.726562 92.945312 689.695312 93.25 C 698.144531 95.800781 707.167969 96.152344 715.132812 100.542969 C 723.230469 105.023438 732.035156 105.242188 740.96875 104.101562 C 746.378906 103.441406 751.660156 102.386719 756.855469 100.5 C 768.519531 96.238281 780.707031 94.964844 793.03125 94.699219 C 797.082031 94.613281 801.128906 95.316406 805.089844 96.589844 C 812.265625 98.875 819.261719 101.464844 825.90625 105.023438 C 829.558594 107 832.730469 109.414062 835.679688 112.3125 C 841.3125 117.933594 845.402344 124.566406 848.703125 131.726562 C 850.507812 135.589844 850.816406 139.585938 849.671875 143.671875 C 848.925781 146.261719 848.265625 149.03125 846.855469 151.3125 C 843.203125 157.15625 841.53125 163.832031 838.714844 169.980469 C 837.613281 172.394531 837.128906 175.164062 836.515625 177.796875 C 835.984375 180.125 835.898438 182.542969 835.238281 184.824219 C 832.199219 195.101562 834.269531 205.074219 837.304688 214.867188 C 841.136719 227.207031 844.964844 239.550781 848.398438 251.980469 C 849.847656 257.292969 850.464844 262.738281 850.730469 268.097656 C 850.949219 273.105469 850.070312 278.332031 847.03125 282.722656 C 844.875 285.84375 843.421875 289.179688 842.367188 292.824219 C 841.53125 295.722656 839.902344 298.449219 838.320312 301.039062 C 837.085938 303.015625 835.28125 304.683594 833.742188 306.441406 C 830.441406 306.703125 827.316406 308.8125 823.882812 307.1875 C 823.3125 306.925781 822.519531 306.75 821.902344 306.925781 C 817.28125 308.109375 813.894531 305.648438 811.03125 302.75 C 806.984375 298.621094 803.199219 294.230469 801.304688 288.566406 C 799.722656 283.734375 797.476562 279.078125 796.199219 274.160156 C 794.660156 268.230469 792.945312 262.390625 791.050781 256.589844 C 787.003906 243.941406 782.335938 231.511719 775.515625 220.003906 C 773.445312 216.492188 771.160156 213.109375 768.914062 209.726562 C 767.066406 206.875 765.128906 204.0625 763.238281 201.25 C 755.753906 190.273438 746.292969 181.75 733.574219 177.269531 C 728.425781 175.46875 723.890625 172.351562 718.875 170.289062 C 717.949219 169.894531 717.113281 169.144531 716.191406 168.839844 C 707.035156 165.765625 699.070312 160.492188 691.410156 154.828125 C 689.519531 153.421875 687.625 151.929688 685.734375 150.523438 C 681.113281 147.230469 678.03125 142.925781 676.183594 137.566406 C 673.585938 130.1875 670.859375 122.898438 668.835938 115.34375 C 668.175781 112.882812 668 110.6875 668.570312 108.402344 C 670.507812 100.015625 678.429688 92.8125 688.550781 93.164062 Z M 842.28125 270.164062 C 839.945312 261.421875 837.613281 252.507812 835.238281 243.679688 C 834.269531 240.078125 833.519531 236.34375 831.980469 233.007812 C 828.59375 225.453125 827.316406 217.371094 825.644531 209.421875 C 824.542969 204.019531 824.542969 198.617188 826.214844 193.257812 C 827.359375 189.699219 828.285156 186.054688 828.988281 182.367188 C 830.75 172.96875 833.699219 163.917969 837.4375 155.136719 C 839.199219 151.050781 840.914062 147.011719 842.5 142.882812 C 842.851562 142.003906 842.941406 140.730469 842.585938 139.9375 C 838.800781 131.683594 833.476562 124.566406 825.421875 120.261719 C 817.0625 115.78125 808.523438 111.480469 799.675781 107.878906 C 794.441406 105.769531 789.113281 105.199219 783.703125 106.648438 C 780.355469 107.527344 776.96875 107.65625 773.578125 108.007812 C 768.871094 108.535156 763.941406 108.84375 759.539062 110.425781 C 751.398438 113.324219 743.078125 114.289062 734.585938 115.082031 C 727.941406 115.695312 721.734375 114.859375 716.011719 111.082031 C 712.890625 109.019531 709.589844 107 706.109375 105.855469 C 702.28125 104.628906 698.144531 104.144531 694.097656 103.835938 C 689.695312 103.484375 685.25 103.660156 680.847656 103.75 C 679.925781 103.75 678.957031 104.453125 678.078125 104.890625 C 676.316406 105.769531 675.613281 107.304688 676.226562 109.105469 C 677.460938 112.664062 678.867188 116.089844 679.96875 119.691406 C 682.214844 126.808594 686.703125 132.210938 692.425781 136.734375 C 700.742188 143.320312 709.632812 148.855469 719.535156 152.894531 C 727.71875 156.234375 735.6875 160.140625 743.609375 164.09375 C 750.695312 167.609375 756.941406 172.484375 762.09375 178.414062 C 769.707031 187.152344 776.441406 196.550781 782.207031 206.652344 C 791.625 223.035156 798.402344 240.339844 802.316406 258.789062 C 803.859375 266.121094 806.632812 273.105469 809.84375 279.867188 C 813.761719 288.171875 820.230469 293.132812 829.121094 295.066406 C 830.574219 295.371094 831.804688 294.890625 832.773438 293.792969 C 835.5 290.628906 837.085938 286.894531 838.273438 282.945312 C 839.507812 278.992188 840.738281 275.125 842.28125 270.164062 Z M 842.28125 270.164062 " fill-opacity="1" fill-rule="nonzero"/><g clip-path="url(#a604f5608b)"><g clip-path="url(#57042a9a65)"><g clip-path="url(#0da1cbe7d7)"><path fill="#e8f9cf" d="M 78.851562 644.011719 C 78.488281 643.332031 79.097656 644.046875 79.300781 644.914062 C 81.195312 652.417969 85 659.363281 85.285156 667.339844 C 85.5625 675.453125 89.367188 682.175781 94.261719 688.378906 C 97.199219 692.152344 100.375 695.648438 104.140625 698.703125 C 112.613281 705.546875 119.070312 714.140625 124.828125 723.292969 C 126.722656 726.296875 128.019531 729.660156 128.847656 733.214844 C 130.363281 739.644531 131.566406 746.078125 131.882812 752.683594 C 132.042969 756.324219 131.652344 759.796875 130.800781 763.328125 C 129.105469 770.105469 125.957031 776.179688 122.050781 781.894531 C 119.953125 785 117.082031 787.039062 113.488281 788.023438 C 111.199219 788.628906 108.816406 789.382812 106.460938 789.355469 C 100.414062 789.25 94.628906 791.007812 88.726562 791.667969 C 86.410156 791.929688 84.105469 792.816406 81.84375 793.546875 C 79.851562 794.199219 77.992188 795.226562 75.972656 795.761719 C 66.863281 798.121094 60.285156 804.179688 54.273438 810.890625 C 46.707031 819.347656 39.136719 827.804688 31.320312 836.003906 C 27.972656 839.496094 24.148438 842.421875 20.230469 845.039062 C 16.554688 847.46875 12.222656 849.167969 7.542969 848.867188 C 4.222656 848.65625 1.050781 849.070312 -2.171875 849.921875 C -4.734375 850.605469 -7.519531 850.609375 -10.183594 850.589844 C -12.230469 850.554688 -14.300781 849.953125 -16.320312 849.585938 C -18.007812 847.222656 -21.003906 845.828125 -21.332031 842.511719 C -21.390625 841.960938 -21.613281 841.285156 -22.023438 840.902344 C -25.003906 837.960938 -24.679688 834.300781 -23.785156 830.839844 C -22.503906 825.929688 -20.902344 821.097656 -17.488281 817.113281 C -14.5625 813.738281 -12.066406 809.949219 -8.9375 806.765625 C -5.164062 802.925781 -1.539062 798.996094 1.976562 794.953125 C 9.675781 786.191406 16.9375 777.066406 22.527344 766.738281 C 24.242188 763.59375 25.757812 760.34375 27.292969 757.128906 C 28.609375 754.449219 29.851562 751.71875 31.117188 749.027344 C 36.011719 738.4375 38.164062 727.472656 35.800781 715.878906 C 34.835938 711.195312 35.136719 706.375 34.429688 701.667969 C 34.3125 700.792969 34.496094 699.828125 34.3125 698.996094 C 32.496094 690.71875 32.875 682.347656 33.6875 674.027344 C 33.890625 671.96875 34.164062 669.871094 34.367188 667.8125 C 34.765625 662.847656 36.617188 658.585938 39.820312 654.773438 C 44.207031 649.488281 48.46875 644.140625 53.246094 639.203125 C 54.800781 637.597656 56.378906 636.472656 58.355469 635.871094 C 65.550781 633.535156 74.550781 636.238281 78.851562 644.011719 Z M 14.863281 839.617188 C 20.394531 833.914062 26.058594 828.128906 31.636719 822.355469 C 33.914062 820 36.386719 817.75 38.207031 815.082031 C 42.371094 809.121094 47.882812 804.507812 53.117188 799.65625 C 56.691406 796.390625 60.761719 793.949219 65.550781 792.785156 C 68.746094 792.039062 71.910156 791.085938 75.007812 789.949219 C 82.882812 787.027344 91.027344 785.15625 99.332031 784 C 103.207031 783.476562 107.023438 782.945312 110.847656 782.269531 C 111.667969 782.136719 112.667969 781.628906 113.105469 781.007812 C 117.617188 774.429688 120.574219 767.207031 120.183594 759.207031 C 119.789062 750.890625 119.179688 742.523438 117.902344 734.242188 C 117.125 729.351562 115.152344 725.089844 111.621094 721.671875 C 109.449219 719.554688 107.820312 717.0625 106.027344 714.671875 C 103.507812 711.371094 101.050781 707.800781 97.875 705.207031 C 92.015625 700.390625 87.535156 694.570312 83.109375 688.539062 C 79.648438 683.820312 77.476562 678.773438 77.742188 672.765625 C 77.886719 669.480469 77.917969 666.085938 77.210938 662.957031 C 76.410156 659.519531 74.90625 656.191406 73.3125 653.003906 C 71.59375 649.535156 69.453125 646.273438 67.402344 643 C 66.984375 642.308594 66.019531 641.894531 65.292969 641.433594 C 63.835938 640.503906 62.359375 640.671875 61.28125 641.949219 C 59.15625 644.480469 57.210938 647.089844 54.996094 649.542969 C 50.648438 654.445312 48.601562 660.265625 47.777344 666.613281 C 46.566406 675.84375 46.40625 685.03125 47.832031 694.304688 C 49.007812 701.972656 49.65625 709.730469 50.253906 717.472656 C 50.804688 724.390625 49.949219 731.292969 47.804688 737.847656 C 44.65625 747.523438 40.613281 756.835938 35.605469 765.734375 C 27.511719 780.222656 17.53125 793.140625 5.402344 804.421875 C 0.574219 808.894531 -3.4375 814.132812 -7.082031 819.605469 C -11.570312 826.304688 -12.390625 833.410156 -9.835938 840.972656 C -9.410156 842.203125 -8.492188 842.910156 -7.226562 843.144531 C -3.613281 843.765625 -0.0859375 843.273438 3.425781 842.378906 C 6.960938 841.519531 10.429688 840.699219 14.863281 839.617188 Z M 14.863281 839.617188 " fill-opacity="1" fill-rule="nonzero"/></g></g></g></svg>